<svg xmlns="http://www.w3.org/2000/svg" viewBox="0 0 512 512"><path fill="#f03" d="M168 144c-9.4.4-18.5 3.3-26.4 8.4C110.5 169 105.8 204 97 233.7c-9.4.3-18.6-2.6-26.8-4.6-1.8 3.1-3 6.4-3.7 9.9 9 3 17.8 6.1 27.8 6.7-4.1 17.1-9.5 34-16 50.3-1.9 3.3-2.2 8-5.5 10.6-17.5-4.2-40.1-10-56.8.2a18.3 18.3 0 0 0-7.9 16c.9 8.5 6.4 14.8 13.8 18.8 23.6 11.3 52.2 3.2 71.5-11 15 5.4 29.7 10.6 45 15.1 46.7 12.5 94.9 23.7 146.5 22v.3c73.6-.8 147-10.8 218.1-29.7l1.1-1-3-10.9c-28.3 6.7-57 11.6-86 14.6a1283 1283 0 0 1-173.2 1.1 594.7 594.7 0 0 1-136.2-27c14.4-21.1 19.5-46.4 27.4-71a83.2 83.2 0 0 0 59.7-41c6.1-12.5 12.2-29 5.3-43.1a34.6 34.6 0 0 0-9.5-10.6 36 36 0 0 0-20.8-5.4zm4 15.1c3.3.4 6.6 0 9 2.9 7.5 7 5.4 20.2 1.7 28.9a68.1 68.1 0 0 1-46.3 40.3c4.7-20.3 9.3-40.3 18.6-58.7 3.7-5.8 9.2-12.7 17-13.4zm109.4 39.4a20 20 0 0 0-16.9 7.6c-2.5 3.6-3 10.1-.3 14 3.3 4.7 9 6.5 14.4 7.2 7.8.5 17.3-1.1 21.4-8.6 2.2-3.6 1.7-8.7-.5-12.2-3.6-5-9.5-6.6-15-8zM200.8 239c-10.3-.2-20.8 2-29.4 5.1a47.6 47.6 0 0 0-30.1 41.8 31 31 0 0 0 15 24.8c27.3 16.2 61.5 3 86.2-10 .2.2.7.5.5.7 1.1 7.8 8.5 14.7 15.7 16.5 18.8 2.7 35.7-5 49.9-16.5 5.8 11 18.3 16.5 30.7 17.6l.3-.3c17.2.5 31.7-7.5 44-18a35 35 0 0 0 18.1 16.6c14.4 4.7 29.6 0 40.4-10.2 1.4 3.9 5 7.4 8.3 9.7 16.3 7.7 33.9-1.9 46.3-10.2-.3-3.6-1.5-7.3-2.8-10.6-5.2 2.7-12.5 6.9-18.3 2.4-1-1.7-2-3.3-1.6-5.5l14.2-50.4c-10-.2-20.8-.5-31.3-.2l-2.6 7.8c-1.4-2-3-4-4.9-5.6-10.8-7.8-26.3-5.3-37.8-.6-17.1 8.4-30.7 24.1-31 44.2-9.1 8-21 17.3-34 12-6.4-3.6-6.2-12.2-5-19 1.8-10.4 5.2-22.2 15.7-26.9 7-3 13.6 1.5 18.7 6 1.3-4.8 3-9.5 3.8-14.5-14.1-9.2-36-6.4-49.9 1.6-14.4 8.7-26.6 23.6-25.5 41.9a34.3 34.3 0 0 1-8.5 6.2c-4.8 2.2-11.7 6-16.7 1.3a10 10 0 0 1-1.3-5.7l13.6-49.6c-11.7 0-24-.3-35.1.3l-12.6 43.9a98.1 98.1 0 0 1-30.7 13.7c-10.5 2.5-24.2 4.7-33.1-2.6a12 12 0 0 1-2.4-10.5c18.5 1.7 38.7-.9 50.4-14.4 3.3-5.4 5.8-12.9 3-19.2l-2.8-4.4c-7.2-6.6-17-9-27.4-9.3zm.6 10c2.7 0 5.2 1.2 6.3 4.1 1.2 7.4-1.9 14.8-8 19.2-6 3.6-13.3 5-20.3 3.7 3.1-9.2 6-19.3 14-25.4 2.2-.8 5.2-1.7 8-1.6zm237 4c3.9 0 7 1.9 9 4.8 3.9 11.1-3.1 21-5.5 31.2a22 22 0 0 1-14.4 13.5c-3.6.4-7.4-1-9.2-4.1-4.2-11.4 1.7-22.5 5-32.8 3.1-5.5 7.2-10.3 13.3-12.5zM35.6 315c8.8-.6 18 3.4 26 5.7l2 1c-8.5 8-22.5 14-35.3 8.7-2.2-1.4-5.3-3.5-5.3-6.6a8.5 8.5 0 0 1 4-6.6c2.7-1.4 5.7-2 8.6-2.2z"/></svg>